<?xml version="1.0" encoding="utf-8"?>
<!-- Generator: Adobe Illustrator 26.0.1, SVG Export Plug-In . SVG Version: 6.00 Build 0)  -->
<svg version="1.1" id="Layer_1" xmlns="http://www.w3.org/2000/svg" xmlns:xlink="http://www.w3.org/1999/xlink" x="0px" y="0px"
	 viewBox="0 0 1024 700" style="enable-background:new 0 0 1024 700;" xml:space="preserve">
<style type="text/css">
	.st0{fill:#FF0018;}
	.st1{fill:#F2EDEE;}
	.st2{fill:none;stroke:#000000;stroke-miterlimit:10;}
	.st3{fill:#FF4370;}
</style>
<g>
	<path class="st0" d="M731.74,256.51c0,0,12.24-50.44,39.17-63.82c0,0,84.47-19.56,96.71-25.74c12.24-6.18,56.31-53.53,62.43-58.68
		l12.21-1.34v-4.7c0,0-86.49,0-101.78,4.39c0,0,33.55-16.3,47.34-17.24c0,0,33.55,0,42.49-4.07c8.95-4.07,41-40.43,45.85-42.32
		c0,0,13.05-8.78,14.91-5.96c0,0,8.57-2.82,6.34,5.64s-38.39,62.06-40.26,69.9c0,0-19.01,54.23-52.56,70.21
		c0,0-31.31,23.82-76.41,21.94c0,0-22.74-2.19-35.41,3.76c0,0-51.81,38.87-57.77,51.72l-3.25,3.45V256.51z"/>
	<path class="st1" d="M775.15,191.7c0,0,84.84-20.25,86.98-22.59c0,0,8.75-3.34,10.57-5.56c0,0,27.51-23.14,28.39-26.28l28.96-28.99
		l12.21-1.34v-4.7H922.4l-23.44,0.51l-26.08,0.83c0,0-30.03,1.44-32.42,3.05c0,0-39.2,18.97-49.36,32.91
		C791.11,139.53,767.57,179.13,775.15,191.7z"/>
	<path d="M779.13,162.91c0,0,24.68,3.46,31.59-3.62c1.93-0.75,4.45-1.97,6.92-3.93c4.77-3.8,6.58-8.18,7.29-10.38
		c0.58-3.11,0.95-7.09,0.49-11.65c-0.72-7.05-3.14-12.64-5.16-16.33c0,0-22.06,11.63-26.17,18.71
		C794.09,135.72,777.26,156.31,779.13,162.91z"/>
	<path class="st2" d="M773.65,143.19c0,0,21.53-37.77,24.92-37.77s52.84-28.57,110.59-36.5"/>
	<path d="M697.77,179.93c0,0-16.85-50.48-21.59-53.14c0,0-21.59-32.33,4.74-41.18c0,0,87.94-40.3,95.31-54.91
		c0,0,66.88-62.44,70.04-67.31c3.16-4.87,57.93-38.08,129.02-26.13c0,0-62.14,46.05-97.42,51.37c0,0-55.29,46.54-59.51,47.85
		c0,0-67.93,48.69-93.73,53.12c0,0-23.7,12.84-24.75,19.04C699.87,108.64,703.56,175.51,697.77,179.93z"/>
	<path d="M648.21,150.07c0,0-9.74-41.32-24.75-42c0,0-59.23,1.71-84.38-27.63c0,0-20.28-30.36-21.09-34.45
		c0,0-10.14-8.87-13.39-7.16c0,0-4.46,57.24,11.76,63.41c0,0,17.44,12.66,30.02,10.61c0,0,62.47,6.14,74.24,20.47
		c0,0,27.99,17.06,27.58,20.81C647.81,157.88,648.21,150.07,648.21,150.07z"/>
	<path class="st0" d="M670.77,251.06V208.7c0,0-14.84-3.61-16.79-4.93c-1.95-1.31-49.98,22-52.33,23.64
		c-2.34,1.64-31.63,0-35.92-3.94c-4.3-3.94-15.62-34.48-17.57-33.82c-1.95,0.66,14.84-9.26,21.48-9.72c0,0-19.52,3.48-29.29-9.32
		s-19.91-30.23-19.91-30.23s16.79,54.51,21.87,55.34c0,0,10.54,39.91,18.74,42.2c0,0,36.71,17.08,62.09-4.27
		c0,0,28.9-10.18,31.24-4.6C656.71,234.64,670.77,244.5,670.77,251.06z"/>
	<path class="st1" d="M548.16,189.66c0.16,1.48,3.89,31.47,27.4,38.47c8.77,2.61,16.88,1.13,26.1-0.7
		c10.55-2.1,30.09-7.53,50.25-23.63c0.52-0.38,0.85-0.79,0.98-1.25c1.32-4.48-15.81-12.82-51.42-25.02
		c-6.49-0.75-18.28-1.35-31.84,2.42C559.89,182.64,552.71,186.64,548.16,189.66z"/>
	<path d="M548.16,189.66c5.6,10.43,17.29,16.58,28.51,15.51c8.92-0.86,14.65-6.01,16.45-7.77c1.4-0.93,2.87-2.12,4.2-3.65
		c5.51-6.33,4.59-13.76,4.16-16.23c-3.41-0.39-7.34-0.64-11.7-0.53c-8.17,0.2-15.03,1.55-20.14,2.95c-3.11,0.7-7.04,1.85-11.27,3.75
		C554,185.65,550.62,187.83,548.16,189.66z"/>
	<path class="st2" d="M635.37,185.68c0,0-33.7-21.42-42.59-21.92c0,0,13.48-4.11-37.99,2.85l-10.42,4.9"/>
	<path class="st3" d="M747.31,537.46c0,0-15.85-0.62-1.71-7.59l25.84-20.71c0,0,13.65,5.13,15.36,6.97s13.9-1.85,13.9-1.85
		s16.09-14.35,19.02-14.35c2.93,0,161.4-2.87,161.4-2.87l20.24,9.43l-1.22,3.49c0,0-47.05,15.58-61.68,15.99
		s-125.56-1.44-138.73-0.41c0,0-47.05,15.17-51.44,28.7c0,0-5.16,3.08-8.55-2.87c0,0,4.41-7.79,6.6-8.61
		C746.33,542.79,749.59,537.67,747.31,537.46z"/>
	<path class="st2" d="M747.93,537.62c0,0,30.07-19.03,35.03-18.51c0,0,68.21-8.86,84.33-5.48c0,0,120.91-4.43,123.39-6"/>
	<path class="st2" d="M644.21,147.54l26.56,48.19c0,0,0,20.39,0,26.92c0,6.53-6.36,112.99-6.36,112.99s-16.31,72.49,14.76,78.37
		c0,0,8.54,18.94,78.44,8.49c0,0,11.9,3.27,16.04,41.15"/>
	<path class="st2" d="M731.74,364.34c0,0,36.65-44.53,89.83-26.23c0,0,43.74,37.21,25.61,47.58l-36.99,14.64"/>
	<path class="st2" d="M740.46,411.12c0,0,48.11-32.75,77.32-25.53"/>
	<path class="st2" d="M735.69,458.88c0,0,6.14,68.73,4.04,72.99"/>
	<path class="st2" d="M755.77,563.6c0,0,11.31,16.2,36.43,3.87c25.13-12.33,43.55-22.71,67.84-12.41l67,8.54"/>
</g>
</svg>
