<?xml version="1.0" encoding="utf-8"?>
<!-- Generator: Adobe Illustrator 26.0.3, SVG Export Plug-In . SVG Version: 6.00 Build 0)  -->
<svg version="1.1" id="Layer_1" xmlns="http://www.w3.org/2000/svg" xmlns:xlink="http://www.w3.org/1999/xlink" x="0px" y="0px"
	 viewBox="0 0 310.88 2031.83" style="enable-background:new 0 0 310.88 2031.83;" xml:space="preserve">
<style type="text/css">
	.st0{fill:#FFFEFF;}
	.st1{fill:#231F20;}
	.st2{fill:#FFFFFF;}
</style>
<rect x="78.79" y="-0.55" transform="matrix(-1.836970e-16 1 -1 -1.836970e-16 156.4656 -79.3417)" width="78.23" height="78.23"/>
<rect x="0.55" y="77.68" transform="matrix(-2.327634e-14 1 -1 -2.327634e-14 156.4656 77.1239)" width="78.23" height="78.23"/>
<rect x="78.79" y="155.91" transform="matrix(-1.836970e-16 1 -1 -1.836970e-16 312.9312 77.1239)" width="78.23" height="78.23"/>
<rect x="0.55" y="234.14" transform="matrix(-1.836970e-16 1 -1 -1.836970e-16 312.9312 233.5895)" width="78.23" height="78.23"/>
<rect x="78.79" y="312.38" transform="matrix(-1.836970e-16 1 -1 -1.836970e-16 469.3968 233.5895)" width="78.23" height="78.23"/>
<rect x="0.55" y="390.61" transform="matrix(-1.836970e-16 1 -1 -1.836970e-16 469.3968 390.0551)" width="78.23" height="78.23"/>
<rect x="78.79" y="468.84" transform="matrix(-1.836970e-16 1 -1 -1.836970e-16 625.8624 390.0551)" width="78.23" height="78.23"/>
<rect x="0.55" y="547.08" transform="matrix(-1.836970e-16 1 -1 -1.836970e-16 625.8624 546.5207)" width="78.23" height="78.23"/>
<rect x="78.79" y="625.31" transform="matrix(-1.836970e-16 1 -1 -1.836970e-16 782.3279 546.5207)" width="78.23" height="78.23"/>
<rect x="0.55" y="703.54" transform="matrix(-1.836970e-16 1 -1 -1.836970e-16 782.3279 702.9863)" width="78.23" height="78.23"/>
<rect x="78.79" y="781.77" transform="matrix(-1.836970e-16 1 -1 -1.836970e-16 938.7936 702.9863)" width="78.23" height="78.23"/>
<rect x="0.55" y="860.01" transform="matrix(-1.836970e-16 1 -1 -1.836970e-16 938.7936 859.4519)" width="78.23" height="78.23"/>
<rect x="78.79" y="938.24" transform="matrix(-1.836970e-16 1 -1 -1.836970e-16 1095.2592 859.4519)" width="78.23" height="78.23"/>
<rect x="0.55" y="1016.47" transform="matrix(-1.836970e-16 1 -1 -1.836970e-16 1095.2592 1015.9175)" width="78.23" height="78.23"/>
<rect x="78.79" y="1094.7" transform="matrix(-1.836970e-16 1 -1 -1.836970e-16 1251.7247 1015.9175)" width="78.23" height="78.23"/>
<rect x="0.55" y="1172.94" transform="matrix(-1.836970e-16 1 -1 -1.836970e-16 1251.7247 1172.3831)" width="78.23" height="78.23"/>
<rect x="78.79" y="1251.17" transform="matrix(-1.836970e-16 1 -1 -1.836970e-16 1408.1903 1172.3831)" width="78.23" height="78.23"/>
<rect x="0.55" y="1329.4" transform="matrix(-1.836970e-16 1 -1 -1.836970e-16 1408.1903 1328.8486)" width="78.23" height="78.23"/>
<rect x="78.79" y="1407.64" transform="matrix(-1.836970e-16 1 -1 -1.836970e-16 1564.6559 1328.8486)" width="78.23" height="78.23"/>
<rect x="0.55" y="1485.87" transform="matrix(-1.836970e-16 1 -1 -1.836970e-16 1564.6559 1485.3142)" width="78.23" height="78.23"/>
<rect x="78.79" y="1564.1" transform="matrix(-1.836970e-16 1 -1 -1.836970e-16 1721.1216 1485.3142)" width="78.23" height="78.23"/>
<rect x="0.55" y="1642.33" transform="matrix(-1.836970e-16 1 -1 -1.836970e-16 1721.1216 1641.7799)" width="78.23" height="78.23"/>
<rect x="78.79" y="1720.57" transform="matrix(-1.836970e-16 1 -1 -1.836970e-16 1877.5872 1641.7799)" width="78.23" height="78.23"/>
<rect x="0.55" y="1798.8" transform="matrix(-1.836970e-16 1 -1 -1.836970e-16 1877.5872 1798.2455)" width="78.23" height="78.23"/>
<rect x="78.79" y="1877.03" transform="matrix(-1.836970e-16 1 -1 -1.836970e-16 2034.0527 1798.2455)" width="78.23" height="78.23"/>
<rect x="0.55" y="1955.27" transform="matrix(-1.836970e-16 1 -1 -1.836970e-16 2034.0527 1954.7111)" width="78.23" height="78.23"/>
<rect x="233.2" y="-1.66" transform="matrix(-1.836970e-16 1 -1 -1.836970e-16 309.7714 -234.8652)" width="78.23" height="78.23"/>
<rect x="154.97" y="76.57" transform="matrix(-2.327634e-14 1 -1 -2.327634e-14 309.7714 -78.3996)" width="78.23" height="78.23"/>
<rect x="233.2" y="154.8" transform="matrix(-1.836970e-16 1 -1 -1.836970e-16 466.237 -78.3996)" width="78.23" height="78.23"/>
<rect x="154.97" y="233.04" transform="matrix(-1.836970e-16 1 -1 -1.836970e-16 466.237 78.066)" width="78.23" height="78.23"/>
<rect x="233.2" y="311.27" transform="matrix(-1.836970e-16 1 -1 -1.836970e-16 622.7026 78.066)" width="78.23" height="78.23"/>
<rect x="154.97" y="389.5" transform="matrix(-1.836970e-16 1 -1 -1.836970e-16 622.7026 234.5316)" width="78.23" height="78.23"/>
<rect x="233.2" y="467.73" transform="matrix(-1.836970e-16 1 -1 -1.836970e-16 779.1682 234.5316)" width="78.23" height="78.23"/>
<rect x="154.97" y="545.97" transform="matrix(-1.836970e-16 1 -1 -1.836970e-16 779.1682 390.9972)" width="78.23" height="78.23"/>
<rect x="233.2" y="624.2" transform="matrix(-1.836970e-16 1 -1 -1.836970e-16 935.6337 390.9972)" width="78.23" height="78.23"/>
<rect x="154.97" y="702.43" transform="matrix(-1.836970e-16 1 -1 -1.836970e-16 935.6337 547.4628)" width="78.23" height="78.23"/>
<rect x="233.2" y="780.66" transform="matrix(-1.836970e-16 1 -1 -1.836970e-16 1092.0994 547.4628)" width="78.23" height="78.23"/>
<rect x="154.97" y="858.9" transform="matrix(-1.836970e-16 1 -1 -1.836970e-16 1092.0994 703.9283)" width="78.23" height="78.23"/>
<rect x="233.2" y="937.13" transform="matrix(-1.836970e-16 1 -1 -1.836970e-16 1248.5649 703.9283)" width="78.23" height="78.23"/>
<rect x="154.97" y="1015.36" transform="matrix(-1.836970e-16 1 -1 -1.836970e-16 1248.5649 860.394)" width="78.23" height="78.23"/>
<rect x="233.2" y="1093.6" transform="matrix(-1.836970e-16 1 -1 -1.836970e-16 1405.0305 860.394)" width="78.23" height="78.23"/>
<rect x="154.97" y="1171.83" transform="matrix(-1.836970e-16 1 -1 -1.836970e-16 1405.0305 1016.8596)" width="78.23" height="78.23"/>
<rect x="233.2" y="1250.06" transform="matrix(-1.836970e-16 1 -1 -1.836970e-16 1561.4961 1016.8596)" width="78.23" height="78.23"/>
<rect x="154.97" y="1328.29" transform="matrix(-1.836970e-16 1 -1 -1.836970e-16 1561.4961 1173.3252)" width="78.23" height="78.23"/>
<rect x="233.2" y="1406.53" transform="matrix(-1.836970e-16 1 -1 -1.836970e-16 1717.9617 1173.3252)" width="78.23" height="78.23"/>
<rect x="154.97" y="1484.76" transform="matrix(-1.836970e-16 1 -1 -1.836970e-16 1717.9617 1329.7908)" width="78.23" height="78.23"/>
<rect x="233.2" y="1562.99" transform="matrix(-1.836970e-16 1 -1 -1.836970e-16 1874.4274 1329.7908)" width="78.23" height="78.23"/>
<rect x="154.97" y="1641.23" transform="matrix(-1.836970e-16 1 -1 -1.836970e-16 1874.4274 1486.2563)" width="78.23" height="78.23"/>
<rect x="233.2" y="1719.46" transform="matrix(-1.836970e-16 1 -1 -1.836970e-16 2030.8929 1486.2563)" width="78.23" height="78.23"/>
<rect x="154.97" y="1797.69" transform="matrix(-1.836970e-16 1 -1 -1.836970e-16 2030.8929 1642.7219)" width="78.23" height="78.23"/>
<rect x="233.2" y="1875.92" transform="matrix(-1.836970e-16 1 -1 -1.836970e-16 2187.3584 1642.7219)" width="78.23" height="78.23"/>
<rect x="154.97" y="1954.16" transform="matrix(-1.836970e-16 1 -1 -1.836970e-16 2187.3584 1799.1875)" width="78.23" height="78.23"/>
</svg>
