<?xml version="1.0" encoding="utf-8"?>
<!-- Generator: Adobe Illustrator 26.0.3, SVG Export Plug-In . SVG Version: 6.00 Build 0)  -->
<svg version="1.1" id="Layer_1" xmlns="http://www.w3.org/2000/svg" xmlns:xlink="http://www.w3.org/1999/xlink" x="0px" y="0px"
	 viewBox="0 0 2031.83 310.88" style="enable-background:new 0 0 2031.83 310.88;" xml:space="preserve">
<style type="text/css">
	.st0{fill:#FFFEFF;}
	.st1{fill:#231F20;}
	.st2{fill:#FFFFFF;}
</style>
<rect y="154.41" width="78.23" height="78.23"/>
<rect x="78.23" y="232.65" width="78.23" height="78.23"/>
<rect x="156.47" y="154.41" width="78.23" height="78.23"/>
<rect x="234.7" y="232.65" width="78.23" height="78.23"/>
<rect x="312.93" y="154.41" width="78.23" height="78.23"/>
<rect x="391.16" y="232.65" width="78.23" height="78.23"/>
<rect x="469.4" y="154.41" width="78.23" height="78.23"/>
<rect x="547.63" y="232.65" width="78.23" height="78.23"/>
<rect x="625.86" y="154.41" width="78.23" height="78.23"/>
<rect x="704.1" y="232.65" width="78.23" height="78.23"/>
<rect x="782.33" y="154.41" width="78.23" height="78.23"/>
<rect x="860.56" y="232.65" width="78.23" height="78.23"/>
<rect x="938.79" y="154.41" width="78.23" height="78.23"/>
<rect x="1017.03" y="232.65" width="78.23" height="78.23"/>
<rect x="1095.26" y="154.41" width="78.23" height="78.23"/>
<rect x="1173.49" y="232.65" width="78.23" height="78.23"/>
<rect x="1251.72" y="154.41" width="78.23" height="78.23"/>
<rect x="1329.96" y="232.65" width="78.23" height="78.23"/>
<rect x="1408.19" y="154.41" width="78.23" height="78.23"/>
<rect x="1486.42" y="232.65" width="78.23" height="78.23"/>
<rect x="1564.66" y="154.41" width="78.23" height="78.23"/>
<rect x="1642.89" y="232.65" width="78.23" height="78.23"/>
<rect x="1721.12" y="154.41" width="78.23" height="78.23"/>
<rect x="1799.35" y="232.65" width="78.23" height="78.23"/>
<rect x="1877.59" y="154.41" width="78.23" height="78.23"/>
<rect x="1955.82" y="232.65" width="78.23" height="78.23"/>
<rect x="-1.11" width="78.23" height="78.23"/>
<rect x="77.12" y="78.23" width="78.23" height="78.23"/>
<rect x="155.36" width="78.23" height="78.23"/>
<rect x="233.59" y="78.23" width="78.23" height="78.23"/>
<rect x="311.82" width="78.23" height="78.23"/>
<rect x="390.06" y="78.23" width="78.23" height="78.23"/>
<rect x="468.29" width="78.23" height="78.23"/>
<rect x="546.52" y="78.23" width="78.23" height="78.23"/>
<rect x="624.75" width="78.23" height="78.23"/>
<rect x="702.99" y="78.23" width="78.23" height="78.23"/>
<rect x="781.22" width="78.23" height="78.23"/>
<rect x="859.45" y="78.23" width="78.23" height="78.23"/>
<rect x="937.68" width="78.23" height="78.23"/>
<rect x="1015.92" y="78.23" width="78.23" height="78.23"/>
<rect x="1094.15" width="78.23" height="78.23"/>
<rect x="1172.38" y="78.23" width="78.23" height="78.23"/>
<rect x="1250.62" width="78.23" height="78.23"/>
<rect x="1328.85" y="78.23" width="78.23" height="78.23"/>
<rect x="1407.08" width="78.23" height="78.23"/>
<rect x="1485.31" y="78.23" width="78.23" height="78.23"/>
<rect x="1563.55" y="0" width="78.23" height="78.23"/>
<rect x="1641.78" y="78.23" width="78.23" height="78.23"/>
<rect x="1720.01" y="0" width="78.23" height="78.23"/>
<rect x="1798.25" y="78.23" width="78.23" height="78.23"/>
<rect x="1876.48" y="0" width="78.23" height="78.23"/>
<rect x="1954.71" y="78.23" width="78.23" height="78.23"/>
</svg>
